<mxfile host="Electron" modified="2023-12-21T07:21:14.578Z" agent="Mozilla/5.0 (Windows NT 10.0; Win64; x64) AppleWebKit/537.36 (KHTML, like Gecko) draw.io/22.1.2 Chrome/114.0.5735.289 Electron/25.9.4 Safari/537.36" etag="eAMkAnLXPKNfa766OiiO" version="22.1.2" type="device">
  <diagram name="Page-1" id="3d3BDfZtXbWT_t7-bNLC">
    <mxGraphModel dx="1036" dy="614" grid="1" gridSize="10" guides="1" tooltips="1" connect="1" arrows="1" fold="1" page="1" pageScale="1" pageWidth="850" pageHeight="1100" math="0" shadow="0">
      <root>
        <mxCell id="0" />
        <mxCell id="1" parent="0" />
        <mxCell id="eKyZq19EBAOOed8ViHv0-30" value="" style="rounded=0;whiteSpace=wrap;html=1;fontFamily=Computer Modern;shadow=1;" vertex="1" parent="1">
          <mxGeometry x="350" y="230" width="95" height="120" as="geometry" />
        </mxCell>
        <mxCell id="eKyZq19EBAOOed8ViHv0-17" value="" style="rounded=0;whiteSpace=wrap;html=1;fontFamily=Computer Modern;shadow=1;" vertex="1" parent="1">
          <mxGeometry x="450" y="130" width="110" height="60" as="geometry" />
        </mxCell>
        <mxCell id="eKyZq19EBAOOed8ViHv0-1" value="" style="rounded=0;whiteSpace=wrap;html=1;fontFamily=Computer Modern;" vertex="1" parent="1">
          <mxGeometry x="350" y="230" width="95" height="10" as="geometry" />
        </mxCell>
        <mxCell id="eKyZq19EBAOOed8ViHv0-2" value="" style="rounded=0;whiteSpace=wrap;html=1;fontFamily=Computer Modern;" vertex="1" parent="1">
          <mxGeometry x="350" y="240" width="95" height="10" as="geometry" />
        </mxCell>
        <mxCell id="eKyZq19EBAOOed8ViHv0-3" value="" style="rounded=0;whiteSpace=wrap;html=1;fontFamily=Computer Modern;" vertex="1" parent="1">
          <mxGeometry x="350" y="250" width="95" height="10" as="geometry" />
        </mxCell>
        <mxCell id="eKyZq19EBAOOed8ViHv0-5" value="" style="rounded=0;whiteSpace=wrap;html=1;fontFamily=Computer Modern;" vertex="1" parent="1">
          <mxGeometry x="350" y="260" width="95" height="10" as="geometry" />
        </mxCell>
        <mxCell id="eKyZq19EBAOOed8ViHv0-6" value="" style="rounded=0;whiteSpace=wrap;html=1;fontFamily=Computer Modern;" vertex="1" parent="1">
          <mxGeometry x="350" y="270" width="95" height="10" as="geometry" />
        </mxCell>
        <mxCell id="eKyZq19EBAOOed8ViHv0-7" value="" style="rounded=0;whiteSpace=wrap;html=1;fontFamily=Computer Modern;" vertex="1" parent="1">
          <mxGeometry x="350" y="280" width="95" height="10" as="geometry" />
        </mxCell>
        <mxCell id="eKyZq19EBAOOed8ViHv0-8" value="" style="rounded=0;whiteSpace=wrap;html=1;fontFamily=Computer Modern;" vertex="1" parent="1">
          <mxGeometry x="350" y="290" width="95" height="10" as="geometry" />
        </mxCell>
        <mxCell id="eKyZq19EBAOOed8ViHv0-9" value="" style="rounded=0;whiteSpace=wrap;html=1;fontFamily=Computer Modern;" vertex="1" parent="1">
          <mxGeometry x="350" y="300" width="95" height="10" as="geometry" />
        </mxCell>
        <mxCell id="eKyZq19EBAOOed8ViHv0-10" value="" style="rounded=0;whiteSpace=wrap;html=1;fontFamily=Computer Modern;" vertex="1" parent="1">
          <mxGeometry x="350" y="310" width="95" height="10" as="geometry" />
        </mxCell>
        <mxCell id="eKyZq19EBAOOed8ViHv0-11" value="" style="rounded=0;whiteSpace=wrap;html=1;fontFamily=Computer Modern;" vertex="1" parent="1">
          <mxGeometry x="350" y="320" width="95" height="10" as="geometry" />
        </mxCell>
        <mxCell id="eKyZq19EBAOOed8ViHv0-12" value="" style="rounded=0;whiteSpace=wrap;html=1;fontFamily=Computer Modern;" vertex="1" parent="1">
          <mxGeometry x="350" y="330" width="95" height="10" as="geometry" />
        </mxCell>
        <mxCell id="eKyZq19EBAOOed8ViHv0-13" value="" style="rounded=0;whiteSpace=wrap;html=1;fontFamily=Computer Modern;" vertex="1" parent="1">
          <mxGeometry x="350" y="340" width="95" height="10" as="geometry" />
        </mxCell>
        <mxCell id="eKyZq19EBAOOed8ViHv0-16" value="CPU registers" style="rounded=0;whiteSpace=wrap;html=1;fontFamily=Computer Modern;" vertex="1" parent="1">
          <mxGeometry x="460" y="157" width="90" height="20" as="geometry" />
        </mxCell>
        <mxCell id="eKyZq19EBAOOed8ViHv0-18" value="ARM CPU" style="text;html=1;strokeColor=none;fillColor=none;align=center;verticalAlign=middle;whiteSpace=wrap;rounded=0;fontFamily=Computer Modern;" vertex="1" parent="1">
          <mxGeometry x="475" y="130" width="60" height="30" as="geometry" />
        </mxCell>
        <mxCell id="eKyZq19EBAOOed8ViHv0-19" value="" style="rounded=0;whiteSpace=wrap;html=1;fontFamily=Computer Modern;shadow=1;" vertex="1" parent="1">
          <mxGeometry x="230" y="130" width="110" height="60" as="geometry" />
        </mxCell>
        <mxCell id="eKyZq19EBAOOed8ViHv0-20" value="internal registers" style="rounded=0;whiteSpace=wrap;html=1;fontFamily=Computer Modern;" vertex="1" parent="1">
          <mxGeometry x="240" y="157" width="90" height="20" as="geometry" />
        </mxCell>
        <mxCell id="eKyZq19EBAOOed8ViHv0-21" value="Coprocessor" style="text;html=1;strokeColor=none;fillColor=none;align=center;verticalAlign=middle;whiteSpace=wrap;rounded=0;fontFamily=Computer Modern;" vertex="1" parent="1">
          <mxGeometry x="255" y="128" width="60" height="30" as="geometry" />
        </mxCell>
        <mxCell id="eKyZq19EBAOOed8ViHv0-22" value="Main memory" style="text;html=1;strokeColor=none;fillColor=none;align=center;verticalAlign=middle;whiteSpace=wrap;rounded=0;fontFamily=Computer Modern;" vertex="1" parent="1">
          <mxGeometry x="356.25" y="207" width="82.5" height="20" as="geometry" />
        </mxCell>
        <mxCell id="eKyZq19EBAOOed8ViHv0-23" value="" style="shape=flexArrow;endArrow=classic;startArrow=classic;html=1;rounded=0;entryX=0.5;entryY=1;entryDx=0;entryDy=0;exitX=0;exitY=0;exitDx=0;exitDy=0;fontFamily=Computer Modern;fillColor=#f5f5f5;strokeColor=#0D0D0D;" edge="1" parent="1">
          <mxGeometry width="100" height="100" relative="1" as="geometry">
            <mxPoint x="345.0000000000001" y="256" as="sourcePoint" />
            <mxPoint x="280" y="196" as="targetPoint" />
            <Array as="points">
              <mxPoint x="280" y="256" />
            </Array>
          </mxGeometry>
        </mxCell>
        <mxCell id="eKyZq19EBAOOed8ViHv0-24" value="" style="shape=flexArrow;endArrow=classic;startArrow=classic;html=1;rounded=0;entryX=1;entryY=0;entryDx=0;entryDy=0;exitX=0.5;exitY=1;exitDx=0;exitDy=0;fontFamily=Computer Modern;fillColor=#f5f5f5;strokeColor=#0D0D0D;" edge="1" parent="1">
          <mxGeometry width="100" height="100" relative="1" as="geometry">
            <mxPoint x="510" y="193" as="sourcePoint" />
            <mxPoint x="450" y="258" as="targetPoint" />
            <Array as="points">
              <mxPoint x="510" y="258" />
            </Array>
          </mxGeometry>
        </mxCell>
        <mxCell id="eKyZq19EBAOOed8ViHv0-26" value="" style="endArrow=open;endSize=12;dashed=1;html=1;rounded=0;exitX=0;exitY=0.25;exitDx=0;exitDy=0;entryX=1;entryY=0.25;entryDx=0;entryDy=0;fontFamily=Computer Modern;" edge="1" parent="1">
          <mxGeometry width="160" relative="1" as="geometry">
            <mxPoint x="450" y="147" as="sourcePoint" />
            <mxPoint x="340" y="147" as="targetPoint" />
          </mxGeometry>
        </mxCell>
        <mxCell id="eKyZq19EBAOOed8ViHv0-27" value="" style="endArrow=open;endSize=12;html=1;rounded=0;entryX=1;entryY=0.75;entryDx=0;entryDy=0;fontFamily=Computer Modern;" edge="1" parent="1">
          <mxGeometry width="160" relative="1" as="geometry">
            <mxPoint x="400" y="172" as="sourcePoint" />
            <mxPoint x="340" y="172" as="targetPoint" />
          </mxGeometry>
        </mxCell>
        <mxCell id="eKyZq19EBAOOed8ViHv0-29" value="" style="endArrow=open;endSize=12;html=1;rounded=0;entryX=0;entryY=0.75;entryDx=0;entryDy=0;fontFamily=Computer Modern;" edge="1" parent="1">
          <mxGeometry width="160" relative="1" as="geometry">
            <mxPoint x="400" y="172" as="sourcePoint" />
            <mxPoint x="450" y="172" as="targetPoint" />
          </mxGeometry>
        </mxCell>
        <mxCell id="eKyZq19EBAOOed8ViHv0-31" value="data" style="text;html=1;strokeColor=none;fillColor=none;align=center;verticalAlign=middle;whiteSpace=wrap;rounded=0;fontFamily=Computer Modern;" vertex="1" parent="1">
          <mxGeometry x="356.25" y="150" width="82.5" height="20" as="geometry" />
        </mxCell>
        <mxCell id="eKyZq19EBAOOed8ViHv0-32" value="cmd" style="text;html=1;strokeColor=none;fillColor=none;align=center;verticalAlign=middle;whiteSpace=wrap;rounded=0;fontFamily=Computer Modern;" vertex="1" parent="1">
          <mxGeometry x="356.25" y="127" width="82.5" height="20" as="geometry" />
        </mxCell>
        <mxCell id="eKyZq19EBAOOed8ViHv0-33" value="R/W" style="text;html=1;strokeColor=none;fillColor=none;align=center;verticalAlign=middle;whiteSpace=wrap;rounded=0;fontFamily=Computer Modern;" vertex="1" parent="1">
          <mxGeometry x="493" y="226" width="82.5" height="20" as="geometry" />
        </mxCell>
        <mxCell id="eKyZq19EBAOOed8ViHv0-34" value="R/W" style="text;html=1;strokeColor=none;fillColor=none;align=center;verticalAlign=middle;whiteSpace=wrap;rounded=0;fontFamily=Computer Modern;" vertex="1" parent="1">
          <mxGeometry x="213" y="226" width="82.5" height="20" as="geometry" />
        </mxCell>
      </root>
    </mxGraphModel>
  </diagram>
</mxfile>
